<svg width="24" height="24" viewBox="0 0 24 24" fill="none" xmlns="http://www.w3.org/2000/svg">
<path d="M12.1444 21.5C9.25322 21.481 7.03061 20.5462 5.53659 18.7222C4.20922 17.0977 3.52325 14.8386 3.5 12.0076V11.9943C3.52325 9.1614 4.20922 6.9042 5.53853 5.2797C7.03061 3.4538 9.25516 2.519 12.1444 2.5H12.156C14.3728 2.5152 16.2272 3.0738 17.667 4.1606C19.0215 5.1828 19.9749 6.6382 20.5 8.4888L18.8529 8.9391C17.9615 5.8041 15.706 4.2024 12.1482 4.1777C9.79967 4.1948 8.02274 4.9187 6.86783 6.3285C5.7885 7.649 5.23042 9.5566 5.20911 12C5.23042 14.4434 5.7885 16.351 6.86977 17.6715C8.02468 19.0832 9.80161 19.8071 12.1502 19.8223C14.2682 19.8071 15.6692 19.3226 16.8338 18.2035C18.1631 16.9267 18.1398 15.3592 17.7135 14.4054C17.4635 13.843 17.0082 13.3756 16.3939 13.0203C16.2389 14.09 15.892 14.9564 15.3572 15.61C14.6421 16.4821 13.6287 16.959 12.3459 17.0274C11.3751 17.0787 10.4391 16.8545 9.71441 16.3928C8.85598 15.8475 8.3541 15.0153 8.29984 14.0463C8.24752 13.1039 8.62926 12.2375 9.37336 11.6067C10.0845 11.0044 11.0844 10.651 12.2664 10.5845C13.1365 10.537 13.9523 10.575 14.7041 10.6966C14.6034 10.1095 14.4019 9.6421 14.0996 9.3058C13.6849 8.8422 13.0435 8.6066 12.1947 8.6009C12.187 8.6009 12.1792 8.6009 12.1715 8.6009C11.4894 8.6009 10.5631 8.7852 9.97407 9.6459L8.55563 8.713C9.34623 7.5616 10.629 6.927 12.1715 6.927C12.1831 6.927 12.1947 6.927 12.2064 6.927C14.7855 6.9422 16.3222 8.4907 16.4753 11.1925C16.5625 11.2286 16.6497 11.2666 16.7349 11.3046C17.9383 11.8594 18.818 12.6992 19.2811 13.7347C19.9245 15.1768 19.9846 17.5271 18.0313 19.4024C16.5373 20.835 14.7255 21.4829 12.156 21.5H12.1444ZM12.9602 12.2451C12.7644 12.2451 12.5668 12.2508 12.3633 12.2622C10.8809 12.3439 9.95663 13.0108 10.0089 13.9589C10.0632 14.9526 11.1813 15.4143 12.2568 15.3573C13.245 15.306 14.5317 14.9279 14.7487 12.4199C14.2023 12.304 13.6035 12.2451 12.9602 12.2451Z" fill="#0C1014" stroke="#0C1014" stroke-width="0.2"/>
</svg>
